<svg width="74" height="78" viewBox="87 95 74 78" xmlns="http://www.w3.org/2000/svg" xmlns:xlink="http://www.w3.org/1999/xlink"><defs><path d="M42.887 42.998c.013-.105.025-.213.035-.324.052-.59.078-13.212.078-13.816C43 17.338 33.374 8 21.5 8S0 17.34 0 28.858c0 .467.016 12.953.047 13.412.736 10.872 10.06 19.47 21.453 19.47 2.763 0 7.013-2.323 10.08-4.87 1.34 3.524 3.102 5.97 5.318 4.86 4.834-4.476 5.827-13.644 5.99-18.732z" id="c"/><filter x="-50%" y="-50%" width="200%" height="200%" filterUnits="objectBoundingBox" id="d"><feMorphology radius="3" in="SourceAlpha" result="shadowSpreadInner1"/><feOffset dx="-2" dy="1" in="shadowSpreadInner1" result="shadowOffsetInner1"/><feComposite in="shadowOffsetInner1" in2="SourceAlpha" operator="arithmetic" k2="-1" k3="1" result="shadowInnerInner1"/><feColorMatrix values="0 0 0 0 0 0 0 0 0 0 0 0 0 0 0 0 0 0 0.145663496 0" in="shadowInnerInner1"/></filter><path id="a" d="M6.036 1.036v5h-5L1.17 1.17z"/><mask id="e" x="-2" y="-2" width="9" height="9"><path fill="#fff" d="M-.964-.964h9v9h-9z"/><use xlink:href="#a"/></mask><path d="M94 120.758l-2.422 1.07c-1.01.444-1.752-.097-1.662-1.187l.232-2.802-1.74-2.095c-.708-.852-.415-1.752.663-2.013l2.55-.618 1.384-2.398c.55-.952 1.44-.957 2 .015l.186.32 1.19 2.062 2.55.618c1.072.26 1.375 1.155.662 2.013l-1.74 2.095.23 2.803c.092 1.1-.653 1.63-1.66 1.187L94 120.757z" id="f"/><filter x="-50%" y="-50%" width="200%" height="200%" filterUnits="objectBoundingBox" id="g"><feMorphology radius="1" in="SourceAlpha" result="shadowSpreadInner1"/><feOffset dx="-2" dy="-4" in="shadowSpreadInner1" result="shadowOffsetInner1"/><feComposite in="shadowOffsetInner1" in2="SourceAlpha" operator="arithmetic" k2="-1" k3="1" result="shadowInnerInner1"/><feColorMatrix values="0 0 0 0 0 0 0 0 0 0 0 0 0 0 0 0 0 0 0.0859941123 0" in="shadowInnerInner1"/></filter><path d="M107 104.16l-1.817.72c-1.027.406-1.776-.165-1.676-1.255l.16-1.73-1.262-1.36c-.748-.807-.47-1.652.602-1.886l1.933-.42.98-1.525c.597-.924 1.565-.92 2.11-.075l1.03 1.6 1.933.42c1.08.234 1.35 1.08.602 1.884l-1.262 1.362.16 1.73c.1 1.098-.65 1.66-1.677 1.254l-1.816-.72z" id="h"/><filter x="-50%" y="-50%" width="200%" height="200%" filterUnits="objectBoundingBox" id="i"><feMorphology radius="1" in="SourceAlpha" result="shadowSpreadInner1"/><feOffset dx="-2" dy="-4" in="shadowSpreadInner1" result="shadowOffsetInner1"/><feComposite in="shadowOffsetInner1" in2="SourceAlpha" operator="arithmetic" k2="-1" k3="1" result="shadowInnerInner1"/><feColorMatrix values="0 0 0 0 0 0 0 0 0 0 0 0 0 0 0 0 0 0 0.0859941123 0" in="shadowInnerInner1"/></filter><rect id="b" x="106" y="116" width="6" height="36" rx="3"/><mask id="j" x="0" y="0" width="6" height="36" fill="#fff"><use xlink:href="#b"/></mask></defs><path d="M114.724 148.278c-2.498.758-11.977-1.56-10.585.85 5.782 8.583 13.94 11.83 14.86 8.71" stroke="#603F39" stroke-width="4" fill="#DDCA03" fill-rule="evenodd"/><g fill="none" fill-rule="evenodd" transform="translate(116 108)"><use fill="#FFEA04" xlink:href="#c"/><use fill="#000" filter="url(#d)" xlink:href="#c"/><use stroke="#603F39" stroke-width="4" xlink:href="#c"/><path d="M23 7l3-7" stroke="#603F39" stroke-width="4" stroke-linecap="round"/><path d="M7 26.658S9 24.8 11 24.8s4 1.858 4 1.858M27 24.998s2-1.858 4-1.858 4 1.858 4 1.858" stroke="#603F39" stroke-width="2" stroke-linecap="round"/><path d="M18 6l-2-4" stroke="#603F39" stroke-width="4" stroke-linecap="round"/><circle stroke="#603F39" stroke-width="2" fill="#603F39" cx="10.5" cy="32.5" r="2.5"/><path d="M30.397 51.914s.305 3.69 1.562 6.003" stroke="#603F39" stroke-width="4"/><circle stroke="#603F39" stroke-width="2" fill="#603F39" cx="30.5" cy="32.5" r="2.5"/><g><g transform="rotate(45 -34.335 41.85)"><use fill="#FF7043" xlink:href="#a"/><use stroke="#603F39" mask="url(#e)" stroke-width="4" xlink:href="#a"/></g><path fill="#D05934" d="M23.07 41.536l-3.534 3.536L16 41.536"/></g></g><g fill="none"><use fill="#91C7E5" fill-rule="evenodd" xlink:href="#f"/><use fill="#000" filter="url(#g)" xlink:href="#f"/><use stroke="#491C58" stroke-width="2" xlink:href="#f"/></g><g fill="none"><use fill="#FFEA04" fill-rule="evenodd" xlink:href="#h"/><use fill="#000" filter="url(#i)" xlink:href="#h"/><use stroke="#491C58" stroke-width="2" xlink:href="#h"/></g><use stroke="#491C58" mask="url(#j)" stroke-width="4" fill="#FFF" fill-rule="evenodd" xlink:href="#b"/><path d="M109 124v20" stroke="#491C58" stroke-width="4" stroke-linecap="square" fill="none"/></svg>