<svg width="673" height="151" viewBox="0 0 673 151" xmlns="http://www.w3.org/2000/svg"><path d="M450.143 0l12.915.696c-1.162 12.408-2.326 24.817-3.49 37.228.233.348.464.696.698 1.044l28.274 2.783c-.464 5.104-.93 10.207-1.396 15.31-7.453-.2-24.24-3.98-29.67-1.74l-5.237 55.668c-1.302 8.255 2.213 17.28 10.472 15.657 8.747-1.72 14.98-9.42 17.452-17.396.852-2.75.38-6.5 2.095-8.35.234.23.464.462.698.694 3.435 16.716.356 31.933-10.472 39.316-12.256 8.357-32.72 4.912-39.794-5.567-9.017-13.358-3.296-42.896-2.095-60.54.464-6.807 3.505-16.405 1.047-21.918l-15.708-1.74c-.108-4.17-.146-10.124 1.397-12.873 18.34-.63 25.89-12.52 30.37-27.138L450.142 0zM168.795 62.975c8.967-.56 15.5-7.92 27.227-5.567l10.82 2.783 5.237 3.828 31.415-5.218c4.08-.937 25.527-4.33 26.53-3.132l-.7 6.96.35.347 18.85-5.567c6.12-1.317 12.9.93 16.755 2.435 24.34 9.493 15.115 35.026 12.916 59.844l14.66 7.306c-1.553-6.724-5.347-15.436-3.14-25.05 5.203-22.705 38.033-46.11 66.32-29.226 14.446 8.62 20.06 22.066 21.295 44.186l-1.047.348-61.435 2.09c.115.347.234.695.35 1.042 2.23 3.28 3.193 7.03 6.282 9.394 7.753 5.936 26.358 7.195 37 2.436 4.685-2.095 8.598-6.654 12.916-8.35.234.232.465.464.7.696-2.686 17.274-28.594 30.88-51.314 25.05-11.08-2.843-19.83-10.02-25.482-18.44h-63.88c.32-1.27-.013-.71.7-1.392 9.092-4.004 19.25-6.027 27.575-10.785.353-17.593 2.987-38.952-10.472-43.142-7.67-2.388-19.195 1.324-20.944 6.263l-1.397 17.05c-.64 3.982-2.296 9.12-.698 12.176l19.198 10.786-.698 1.044h-47.822c-4.503.7-9.658-1.68-12.566.348v.348c3.82.73 10.97 3.952 13.264 6.61l-.697 1.044-66.322-.348c.32-1.27-.013-.71.7-1.392l27.226-10.437c.293-12.16 2.25-31.76-3.142-38.97-5.336-7.134-23.852-6.308-27.576 1.74-1.413 5.192-4.09 26.115-2.094 29.574 3.397 1.168 18.87 9.486 18.15 11.482l-62.83-.348.348-1.74c8.684-.64 17.355-6.725 24.784-9.742-.003-6.91-2.488-30.796-4.887-35.836l-26.88-7.654v.348c2.244 3.928 4.71 8.202 5.935 13.22C136.435 147.57 28.16 162.8 3.687 112.73c-4.412-9.026-4.847-24.67-1.396-34.793C15.875 38.09 84.846 32.418 111.55 64.018l45.03-6.958c3.403-.75 9.01-2.862 12.566-2.088-.116 2.668-.232 5.335-.35 8.003zm453.787-16.7c1.58.298 1.04-.04 1.745 1.043v11.83h1.047c6.08-3.162 12.018-7.317 19.548-9.047 15.135-3.478 33.21 5.907 26.53 22.27-1.404 3.437-4.25 5.756-7.68 7.305-16.962 7.66-17.45-13.51-30.02-9.742-14.02 4.203-11.094 31.88-11.17 49.406l26.18 10.09c3.246 1.23 8.524 1.547 10.82 3.826-.233.348-.464.696-.698 1.044-13.268-.074-26.96 2.13-39.095 4.175-18.753 3.16-35.686 2.265-54.106 5.22-5.065.81-29.297.694-30.37-.697.69-2.256.81-4.646.35-6.96-22.48 3.268-61.736-3.896-47.124-29.573 5.466-9.602 21.918-15.74 39.445-12.873 3.895.638 11.372 2 14.66.696.953-23.785-7.847-35.82-28.623-23.31.482 2.386 1.82 2.833 2.443 4.522 3.076 8.326-3.885 15.534-9.075 17.048-11.778 3.437-19.51-7.954-16.057-18.788 6.806-21.352 47.647-26.067 65.973-11.83 16.005 12.435 6.838 46.917 5.236 68.542 4.772 2.436 9.542 4.87 14.312 7.307 8.26-5.22 16.52-10.44 24.784-15.658l-3.142-28.182c-1.31-7.852.265-17.647-2.793-24.007-10.992-3.067-21.328-6.022-33.16-8.35-.116-.232-.235-.464-.35-.696v-.348l1.047-.697 42.935-9.742c4.92-1.227 13.05-.823 16.407-3.826zM60.585 60.19l-9.425 1.74c-8.725 2.95-15.772 9.818-19.2 18.093-8.765 21.166 5.404 43.71 22.34 46.97 44.304 8.53 51.27-67.553 6.285-66.802zm156.032 8.004l3.84 9.394c3.017 11.658.153 30.89-3.142 41.403.82 1.378 2.452 3.18 4.887 2.784l24.784-10.786c.982-2.472-3.703-33.072-4.887-35.488l-25.483-7.306zm154.986 16.352l-7.33 2.436c-3.66 2.43-10.532 12.054-8.727 17.048 10.332.033 29.834 2.706 36.652 0-.255-11.912-7.942-19.77-20.595-19.484zm149.4 20.528c-21.415 11.73-.653 24.12 17.454 17.048l2.094-15.657h-.697c-4.943-2.01-12.322-1.44-18.85-1.39z" fill="#9143C1" fill-rule="evenodd"/></svg>