<svg width="114" height="117" viewBox="192 93 114 117" xmlns="http://www.w3.org/2000/svg" xmlns:xlink="http://www.w3.org/1999/xlink"><defs><rect id="a" y="3" width="23" height="29" rx="11.5"/><filter x="-50%" y="-50%" width="200%" height="200%" filterUnits="objectBoundingBox" id="d"><feMorphology radius="2" in="SourceAlpha" result="shadowSpreadInner1"/><feOffset dx="-2" dy="1" in="shadowSpreadInner1" result="shadowOffsetInner1"/><feComposite in="shadowOffsetInner1" in2="SourceAlpha" operator="arithmetic" k2="-1" k3="1" result="shadowInnerInner1"/><feColorMatrix values="0 0 0 0 0 0 0 0 0 0 0 0 0 0 0 0 0 0 0.134227808 0" in="shadowInnerInner1"/></filter><mask id="e" x="0" y="0" width="23" height="29" fill="#fff"><use xlink:href="#a"/></mask><path id="b" d="M3.018.518v2.5h-2.5L.584.584z"/><mask id="f" x="-1" y="-1" width="4.5" height="4.5"><path fill="#fff" d="M-.482-.482h4.5v4.5h-4.5z"/><use xlink:href="#b"/></mask><path d="M212.824 197.393c-.17 1.647.996 3.325 2.608 3.722 0 0 11.33 3.244 24.176 3.244 12.844 0 25.047-3.48 25.047-3.48 1.066-.28 1.847-1.4 1.743-2.495L261.82 150h-44.128l-4.868 47.393z" id="g"/><filter x="-50%" y="-50%" width="200%" height="200%" filterUnits="objectBoundingBox" id="h"><feOffset dx="-8" dy="1" in="SourceAlpha" result="shadowOffsetInner1"/><feComposite in="shadowOffsetInner1" in2="SourceAlpha" operator="arithmetic" k2="-1" k3="1" result="shadowInnerInner1"/><feColorMatrix values="0 0 0 0 0 0 0 0 0 0 0 0 0 0 0 0 0 0 0.124009284 0" in="shadowInnerInner1"/></filter><path d="M217 163.73s12.838 1.916 23 1.916 23-1.917 23-1.917L261.61 150h-43.29L217 163.73z" id="i"/><filter x="-50%" y="-50%" width="200%" height="200%" filterUnits="objectBoundingBox" id="j"><feOffset dx="-8" dy="1" in="SourceAlpha" result="shadowOffsetInner1"/><feComposite in="shadowOffsetInner1" in2="SourceAlpha" operator="arithmetic" k2="-1" k3="1" result="shadowInnerInner1"/><feColorMatrix values="0 0 0 0 0 0 0 0 0 0 0 0 0 0 0 0 0 0 0.0798799819 0" in="shadowInnerInner1"/></filter><rect id="c" x="207" y="141" width="65" height="10.867" rx="5.433"/><mask id="k" x="0" y="0" width="65" height="10.867" fill="#fff"><use xlink:href="#c"/></mask><path d="M218.716 117.936l-4.93 2.085c-.505.214-.875-.067-.83-.6l.46-5.335-3.507-4.045c-.36-.413-.205-.852.316-.973l5.215-1.21 2.764-4.587c.283-.47.74-.47 1.03.01l1.12 1.858 1.637 2.718 5.216 1.21c.534.125.667.57.317.974l-3.508 4.045.46 5.335c.047.545-.335.81-.828.6l-4.93-2.084z" id="l"/><filter x="-50%" y="-50%" width="200%" height="200%" filterUnits="objectBoundingBox" id="m"><feMorphology radius=".5" in="SourceAlpha" result="shadowSpreadInner1"/><feOffset dx="-1" dy="-2" in="shadowSpreadInner1" result="shadowOffsetInner1"/><feComposite in="shadowOffsetInner1" in2="SourceAlpha" operator="arithmetic" k2="-1" k3="1" result="shadowInnerInner1"/><feColorMatrix values="0 0 0 0 0 0 0 0 0 0 0 0 0 0 0 0 0 0 0.0942312047 0" in="shadowInnerInner1"/></filter><path d="M258.307 125.426l-3.945 1.668c-.505.214-.875-.06-.83-.602l.37-4.267-2.807-3.236c-.36-.415-.212-.853.317-.975l4.172-.97 2.21-3.668c.283-.47.744-.466 1.027.004l.848 1.407 1.362 2.26 4.172.968c.534.124.672.564.316.974l-2.806 3.235.368 4.267c.047.546-.33.814-.828.602l-3.945-1.668z" id="n"/><filter x="-50%" y="-50%" width="200%" height="200%" filterUnits="objectBoundingBox" id="o"><feMorphology radius=".5" in="SourceAlpha" result="shadowSpreadInner1"/><feOffset dx="-1" dy="-2" in="shadowSpreadInner1" result="shadowOffsetInner1"/><feComposite in="shadowOffsetInner1" in2="SourceAlpha" operator="arithmetic" k2="-1" k3="1" result="shadowInnerInner1"/><feColorMatrix values="0 0 0 0 0 0 0 0 0 0 0 0 0 0 0 0 0 0 0.0958163496 0" in="shadowInnerInner1"/></filter><path d="M246.36 104.645l-3.245 1.373c-.51.216-.887-.057-.84-.61l.303-3.51-2.31-2.663c-.362-.42-.218-.862.322-.987l3.433-.797 1.82-3.018c.285-.475.75-.478 1.034-.004l.653 1.083 1.168 1.94 3.433.798c.542.125.685.568.322.987l-2.31 2.662.304 3.51c.048.554-.33.827-.84.61l-3.245-1.372z" id="p"/><filter x="-50%" y="-50%" width="200%" height="200%" filterUnits="objectBoundingBox" id="q"><feMorphology radius=".5" in="SourceAlpha" result="shadowSpreadInner1"/><feOffset dx="-1" dy="-2" in="shadowSpreadInner1" result="shadowOffsetInner1"/><feComposite in="shadowOffsetInner1" in2="SourceAlpha" operator="arithmetic" k2="-1" k3="1" result="shadowInnerInner1"/><feColorMatrix values="0 0 0 0 0 0 0 0 0 0 0 0 0 0 0 0 0 0 0.0859941123 0" in="shadowInnerInner1"/></filter></defs><g fill="none" fill-rule="evenodd" transform="translate(219 119.5)"><use fill="#FFEA04" xlink:href="#a"/><use fill="#000" filter="url(#d)" xlink:href="#a"/><use stroke="#603F39" mask="url(#e)" stroke-width="4" xlink:href="#a"/><path d="M12.5 3.5L14 0" stroke="#603F39" stroke-width="2" stroke-linecap="round"/><path d="M4.5 13.33s1-.93 2-.93 2 .93 2 .93M14.5 12.5s1-.93 2-.93 2 .93 2 .93" stroke="#603F39" stroke-linecap="round"/><path d="M10 3L9 1" stroke="#603F39" stroke-width="2" stroke-linecap="round"/><circle stroke="#603F39" fill="#603F39" cx="6.25" cy="16.25" r="1.25"/><circle stroke="#603F39" fill="#603F39" cx="16.25" cy="16.25" r="1.25"/><g><g transform="rotate(45 -16.667 22.132)"><use fill="#FF7043" xlink:href="#b"/><use stroke="#603F39" mask="url(#f)" stroke-width="2" xlink:href="#b"/></g><path fill="#D05934" d="M12.536 20.768l-1.768 1.767L9 20.768"/></g></g><g fill="none"><use fill="#F95353" fill-rule="evenodd" xlink:href="#g"/><use fill="#000" filter="url(#h)" xlink:href="#g"/><use stroke="#491C58" stroke-width="3" xlink:href="#g"/></g><g fill="none"><use fill="#F9F4F4" fill-rule="evenodd" xlink:href="#i"/><use fill="#000" filter="url(#j)" xlink:href="#i"/><use stroke="#491C58" stroke-width="3" xlink:href="#i"/></g><use stroke="#491C58" mask="url(#k)" stroke-width="6" fill="#F95353" fill-rule="evenodd" xlink:href="#c"/><g fill="none" transform="rotate(-24 218.716 111.506)"><use fill="#F95353" fill-rule="evenodd" xlink:href="#l"/><use fill="#000" filter="url(#m)" xlink:href="#l"/><use stroke="#491C58" stroke-width="2" xlink:href="#l"/></g><g fill="none" transform="rotate(19 258.307 120.097)"><use fill="#F6F6F6" fill-rule="evenodd" xlink:href="#n"/><use fill="#000" filter="url(#o)" xlink:href="#n"/><use stroke="#491C58" stroke-width="2" xlink:href="#n"/></g><g fill="none"><use fill="#91C7E5" fill-rule="evenodd" xlink:href="#p"/><use fill="#000" filter="url(#q)" xlink:href="#p"/><use stroke="#491C58" stroke-width="2" xlink:href="#p"/></g><path d="M194 206.5h85M284.25 206.5h2.25M291.5 206.5h12" stroke="#491C58" stroke-width="3" stroke-linecap="round" fill="none"/><path d="M222.5 172.5l-2 20" stroke="#F39090" stroke-width="3" stroke-linecap="square" fill="none"/><path d="M224.865 128.108s.182-.452.537-.76c.23-.2.59-.282.83-.348" stroke="#FFF" stroke-linecap="round" fill="none"/></svg>