<svg width="113" height="116" viewBox="0 0 113 116" xmlns="http://www.w3.org/2000/svg" xmlns:xlink="http://www.w3.org/1999/xlink"><defs><path d="M41.67 25.702c.008-.063.015-.127.02-.193.03-.353.046-7.857.046-8.216 0-6.85-5.658-12.402-12.638-12.402-6.98 0-12.64 5.553-12.64 12.402 0 .278.01 7.702.03 7.974.432 6.465 5.913 11.577 12.61 11.577 1.624 0 4.123-1.38 5.925-2.895.788 2.095 1.824 3.55 3.127 2.89 2.84-2.662 3.425-8.113 3.52-11.138z" id="a"/><filter x="-15.8%" y="-12.5%" width="131.6%" height="125.1%" filterUnits="objectBoundingBox" id="b"><feMorphology radius="3" in="SourceAlpha" result="shadowSpreadInner1"/><feOffset dx="-2" dy="1" in="shadowSpreadInner1" result="shadowOffsetInner1"/><feComposite in="shadowOffsetInner1" in2="SourceAlpha" operator="arithmetic" k2="-1" k3="1" result="shadowInnerInner1"/><feColorMatrix values="0 0 0 0 1 0 0 0 0 0 0 0 0 0 0 0 0 0 0.15 0" in="shadowInnerInner1"/></filter><path id="c" d="M4.548.616V3.59h-2.94L1.69.694z"/><path d="M3.527 7.72l-.67.3c-1.01.45-1.754-.086-1.664-1.18l.07-.856-.505-.613c-.702-.855-.407-1.76.676-2.025l.693-.17.413-.722c.545-.955 1.434-.946 1.687-.504l.7 1.225.693.17c1.076.263 1.376 1.173.675 2.026l-.504.614.07.856c.09 1.102-.654 1.63-1.664 1.18l-.67-.3z" id="d"/><filter x="-55.6%" y="-53.8%" width="211.2%" height="207.5%" filterUnits="objectBoundingBox" id="e"><feMorphology radius="1" in="SourceAlpha" result="shadowSpreadInner1"/><feOffset dx="-2" dy="-4" in="shadowSpreadInner1" result="shadowOffsetInner1"/><feComposite in="shadowOffsetInner1" in2="SourceAlpha" operator="arithmetic" k2="-1" k3="1" result="shadowInnerInner1"/><feColorMatrix values="0 0 0 0 0 0 0 0 0 0 0 0 0 0 0 0 0 0 0.0859941123 0" in="shadowInnerInner1"/></filter><path d="M25.716 21.936l-4.93 2.085c-.505.214-.875-.067-.83-.6l.46-5.335-3.507-4.045c-.36-.413-.205-.852.316-.973l5.215-1.21 2.764-4.587c.283-.47.74-.47 1.03.01l1.12 1.858 1.637 2.718 5.216 1.21c.534.125.667.57.317.974l-3.508 4.045.46 5.335c.047.545-.335.81-.828.6l-4.93-2.084z" id="f"/><filter x="-12.5%" y="-13.1%" width="125%" height="126.2%" filterUnits="objectBoundingBox" id="g"><feMorphology radius=".5" in="SourceAlpha" result="shadowSpreadInner1"/><feOffset dx="-1" dy="-2" in="shadowSpreadInner1" result="shadowOffsetInner1"/><feComposite in="shadowOffsetInner1" in2="SourceAlpha" operator="arithmetic" k2="-1" k3="1" result="shadowInnerInner1"/><feColorMatrix values="0 0 0 0 0 0 0 0 0 0 0 0 0 0 0 0 0 0 0.0942312047 0" in="shadowInnerInner1"/></filter><path d="M72.307 30.426l-3.945 1.668c-.505.214-.875-.06-.83-.602l.37-4.267-2.807-3.236c-.36-.415-.212-.853.317-.975l4.172-.97 2.21-3.668c.283-.47.744-.466 1.027.004l.848 1.407 1.362 2.26 4.172.968c.534.124.672.564.316.974l-2.806 3.235.368 4.267c.047.546-.33.814-.828.602l-3.945-1.668z" id="h"/><filter x="-15.2%" y="-15.9%" width="130.4%" height="131.8%" filterUnits="objectBoundingBox" id="i"><feMorphology radius=".5" in="SourceAlpha" result="shadowSpreadInner1"/><feOffset dx="-1" dy="-2" in="shadowSpreadInner1" result="shadowOffsetInner1"/><feComposite in="shadowOffsetInner1" in2="SourceAlpha" operator="arithmetic" k2="-1" k3="1" result="shadowInnerInner1"/><feColorMatrix values="0 0 0 0 0 0 0 0 0 0 0 0 0 0 0 0 0 0 0.0958163496 0" in="shadowInnerInner1"/></filter><path d="M54.292 11.57l-3.246 1.374c-.51.216-.887-.058-.84-.61l.303-3.51L48.2 6.16c-.363-.42-.22-.86.32-.986l3.434-.798 1.82-3.018c.286-.475.75-.478 1.034-.005l.653 1.084 1.17 1.94 3.432.797c.54.125.684.568.32.986l-2.308 2.663.303 3.51c.048.554-.33.827-.84.61l-3.245-1.372z" id="j"/><filter x="-17.9%" y="-18.7%" width="135.8%" height="137.4%" filterUnits="objectBoundingBox" id="k"><feMorphology radius=".5" in="SourceAlpha" result="shadowSpreadInner1"/><feOffset dx="-1" dy="-2" in="shadowSpreadInner1" result="shadowOffsetInner1"/><feComposite in="shadowOffsetInner1" in2="SourceAlpha" operator="arithmetic" k2="-1" k3="1" result="shadowInnerInner1"/><feColorMatrix values="0 0 0 0 0 0 0 0 0 0 0 0 0 0 0 0 0 0 0.0859941123 0" in="shadowInnerInner1"/></filter><path d="M18.824 56.393c-.17 1.647.996 3.325 2.608 3.722 0 0 11.33 3.244 24.176 3.244 12.844 0 25.047-3.48 25.047-3.48 1.066-.28 1.847-1.4 1.743-2.495L67.82 9H23.693l-4.868 47.393z" id="l"/><filter x="-10.3%" y="-10.1%" width="120.5%" height="120.2%" filterUnits="objectBoundingBox" id="m"><feOffset dx="-8" dy="1" in="SourceAlpha" result="shadowOffsetInner1"/><feComposite in="shadowOffsetInner1" in2="SourceAlpha" operator="arithmetic" k2="-1" k3="1" result="shadowInnerInner1"/><feColorMatrix values="0 0 0 0 0 0 0 0 0 0 0 0 0 0 0 0 0 0 0.124009284 0" in="shadowInnerInner1"/></filter><path d="M23 22.73s12.838 1.916 23 1.916 23-1.917 23-1.917L67.61 9H24.32L23 22.73z" id="n"/><filter x="-12.2%" y="-35.2%" width="124.5%" height="170.3%" filterUnits="objectBoundingBox" id="o"><feOffset dx="-8" dy="1" in="SourceAlpha" result="shadowOffsetInner1"/><feComposite in="shadowOffsetInner1" in2="SourceAlpha" operator="arithmetic" k2="-1" k3="1" result="shadowInnerInner1"/><feColorMatrix values="0 0 0 0 0 0 0 0 0 0 0 0 0 0 0 0 0 0 0.0798799819 0" in="shadowInnerInner1"/></filter><rect id="p" x="13" width="65" height="10.867" rx="5.433"/></defs><g fill="none" fill-rule="evenodd"><g transform="translate(12 23)"><use fill="#FFEA04" xlink:href="#a"/><use fill="#000" filter="url(#b)" xlink:href="#a"/><use stroke="#603F39" stroke-width="3" xlink:href="#a"/><path d="M29.98 4.297L31.743.135" stroke="#603F39" stroke-width="4" stroke-linecap="round"/><path d="M20.574 15.986s1.176-1.105 2.352-1.105c1.175 0 2.35 1.106 2.35 1.106M32.33 15s1.177-1.106 2.352-1.106c1.176 0 2.352 1.105 2.352 1.105" stroke="#603F39" stroke-linecap="round"/><path d="M27.04 3.703l-1.175-2.38" stroke="#603F39" stroke-width="4" stroke-linecap="round"/><ellipse stroke="#603F39" fill="#603F39" cx="22.632" cy="19.459" rx="1.47" ry="1.486"/><path d="M34.328 31.003s.18 2.195.918 3.57" stroke="#603F39" stroke-width="4"/><ellipse stroke="#603F39" fill="#603F39" cx="34.389" cy="19.459" rx="1.47" ry="1.486"/><g><g transform="rotate(45 -11.926 43.482)"><use fill="#FF7043" xlink:href="#c"/><path stroke="#603F39" d="M5.048.616V.102l-.514.014-2.86.08L1.2.207 1.187.68 1.11 3.576l-.015.514h3.952V.615z"/></g><path fill="#D05934" d="M30.034 24.82l-2.102 2.102-2.08-2.078"/></g><g><use fill="#91C7E5" xlink:href="#d"/><use fill="#000" filter="url(#e)" xlink:href="#d"/><use stroke="#491C58" stroke-width="2" xlink:href="#d"/></g></g><g transform="rotate(-24 25.716 15.506)"><use fill="#F95353" xlink:href="#f"/><use fill="#000" filter="url(#g)" xlink:href="#f"/><use stroke="#491C58" stroke-width="2" xlink:href="#f"/></g><g transform="rotate(19 72.307 25.097)"><use fill="#F6F6F6" xlink:href="#h"/><use fill="#000" filter="url(#i)" xlink:href="#h"/><use stroke="#491C58" stroke-width="2" xlink:href="#h"/></g><use fill="#91C7E5" xlink:href="#j"/><use fill="#000" filter="url(#k)" xlink:href="#j"/><use stroke="#491C58" stroke-width="2" xlink:href="#j"/><path d="M2 113.5h85M92 114h2.25M99.5 113.5h12" stroke="#491C58" stroke-width="3" stroke-linecap="round"/><g><g transform="translate(2 48)"><use fill="#F95353" xlink:href="#l"/><use fill="#000" filter="url(#m)" xlink:href="#l"/><use stroke="#491C58" stroke-width="3" xlink:href="#l"/></g><g transform="translate(2 48)"><use fill="#F9F4F4" xlink:href="#n"/><use fill="#000" filter="url(#o)" xlink:href="#n"/><use stroke="#491C58" stroke-width="3" xlink:href="#n"/></g><g transform="translate(2 48)"><use fill="#F95353" xlink:href="#p"/><rect stroke="#491C58" stroke-width="3" x="14.5" y="1.5" width="62" height="7.867" rx="3.933"/></g><path d="M30.5 79.5l-2 20" stroke="#F39090" stroke-width="3" stroke-linecap="square"/><path d="M2 113.5h85M92.25 113.5h2.25M99.5 113.5h12" stroke="#491C58" stroke-width="3" stroke-linecap="round"/></g></g></svg>