<svg width="128" height="111" viewBox="0 0 128 111" xmlns="http://www.w3.org/2000/svg" xmlns:xlink="http://www.w3.org/1999/xlink"><defs><path d="M92.296 42.998c.014-.105.025-.213.035-.324.053-.59.08-13.212.08-13.816C92.41 17.338 82.74 8 70.814 8c-11.927 0-21.596 9.34-21.596 20.858 0 .467.016 12.953.047 13.412.74 10.872 10.105 19.47 21.55 19.47 2.774 0 7.044-2.323 10.124-4.87 1.345 3.524 3.115 5.97 5.34 4.86 4.856-4.476 5.854-13.644 6.016-18.732z" id="a"/><filter x="-10.4%" y="-8.3%" width="120.8%" height="116.8%" filterUnits="objectBoundingBox" id="b"><feMorphology radius="3" in="SourceAlpha" result="shadowSpreadInner1"/><feOffset dx="-2" dy="1" in="shadowSpreadInner1" result="shadowOffsetInner1"/><feComposite in="shadowOffsetInner1" in2="SourceAlpha" operator="arithmetic" k2="-1" k3="1" result="shadowInnerInner1"/><feColorMatrix values="0 0 0 0 1 0 0 0 0 0 0 0 0 0 0 0 0 0 0.145663496 0" in="shadowInnerInner1"/></filter><rect id="c" width="38.169" height="45" rx="8"/><path id="d" d="M6.062 2.036v5H1.04l.134-4.867z"/><path d="M18.824 56.393c-.17 1.647.996 3.325 2.608 3.722 0 0 11.33 3.244 24.176 3.244 12.844 0 25.047-3.48 25.047-3.48 1.066-.28 1.847-1.4 1.743-2.495L67.82 9H23.693l-4.868 47.393z" id="e"/><filter x="-10.3%" y="-10.1%" width="120.5%" height="120.2%" filterUnits="objectBoundingBox" id="f"><feOffset dx="-8" dy="1" in="SourceAlpha" result="shadowOffsetInner1"/><feComposite in="shadowOffsetInner1" in2="SourceAlpha" operator="arithmetic" k2="-1" k3="1" result="shadowInnerInner1"/><feColorMatrix values="0 0 0 0 0 0 0 0 0 0 0 0 0 0 0 0 0 0 0.124009284 0" in="shadowInnerInner1"/></filter><path d="M23 22.73s12.838 1.916 23 1.916 23-1.917 23-1.917L67.61 9H24.32L23 22.73z" id="g"/><filter x="-12.2%" y="-35.2%" width="124.5%" height="170.3%" filterUnits="objectBoundingBox" id="h"><feOffset dx="-8" dy="1" in="SourceAlpha" result="shadowOffsetInner1"/><feComposite in="shadowOffsetInner1" in2="SourceAlpha" operator="arithmetic" k2="-1" k3="1" result="shadowInnerInner1"/><feColorMatrix values="0 0 0 0 0 0 0 0 0 0 0 0 0 0 0 0 0 0 0.0798799819 0" in="shadowInnerInner1"/></filter><rect id="i" x="13" width="65" height="10.867" rx="5.433"/></defs><g fill="none" fill-rule="evenodd"><g transform="translate(33 2)"><path d="M48.94 25.278c-2.508.758-12.03-1.56-10.632.85 5.81 8.583 14.003 11.83 14.928 8.71" stroke="#603F39" stroke-width="4" fill="#FFEA04"/><use fill="#FFEA04" xlink:href="#a"/><use fill="#000" filter="url(#b)" xlink:href="#a"/><use stroke="#603F39" stroke-width="4" xlink:href="#a"/><path d="M72.32 7l3.014-7" stroke="#603F39" stroke-width="4" stroke-linecap="round"/><path d="M57.254 25.658s2.01-1.858 4.018-1.858c2.01 0 4.017 1.858 4.017 1.858M76.338 24.998s2.01-1.858 4.018-1.858c2.01 0 4.018 1.858 4.018 1.858" stroke="#603F39" stroke-width="2" stroke-linecap="round"/><path d="M67.298 6l-2.01-4" stroke="#603F39" stroke-width="4" stroke-linecap="round"/><ellipse stroke="#603F39" stroke-width="2" fill="#603F39" cx="60.769" cy="31.5" rx="2.511" ry="2.5"/><path d="M79.75 51.914s.307 3.69 1.57 6.003" stroke="#603F39" stroke-width="4"/><g transform="rotate(10 -24.443 48.76)"><use fill="#FAFAFA" xlink:href="#c"/><rect stroke="#491C58" stroke-width="3" x="1.5" y="1.5" width="35.169" height="42" rx="8"/></g><path stroke="#979797" stroke-width="2" d="M17.666 37.477l-.718-1.203-3.317.854-2.074-2.085-1.767.83"/><path d="M11.825 17.905s.06-3.29 1.764-4.76c1.703-1.473 4.446-.35 4.446-.35" stroke="#FFF" stroke-width="2" stroke-linecap="round"/><path stroke="#979797" stroke-width="2" d="M24.17 21.08l-.72-1.202-4.468-.25-2.893-.964-4.16-.72"/><path d="M11.825 17.905s.06-3.29 1.764-4.76c1.703-1.473 4.446-.35 4.446-.35" stroke="#FFF" stroke-width="2" opacity=".802" stroke-linecap="round"/><path stroke="#979797" stroke-width="2" d="M34.892 41.25l-.718-1.204-4.47-.25-2.892-.963-4.158-.72M36.617 31.338l-4.586-.044-3.1-1.137-2.74-.536M19.083 28.248l-7.71-1.362M36.62 22.54l-.72-1.202-3.316.854-2.075-2.085-1.768.83"/><ellipse stroke="#603F39" stroke-width="2" fill="#603F39" cx="79.854" cy="32.5" rx="2.511" ry="2.5"/><g><g transform="rotate(45 -8.467 101.847)"><use fill="#FF7043" xlink:href="#d"/><path stroke="#603F39" stroke-width="2" d="M7.062 2.036V1.008l-1.027.028-4.888.133-.947.025-.026.946L.04 7.01.013 8.036H7.062v-6z"/></g><path fill="#D05934" d="M72.384 41.543L68.85 45.08l-3.553-3.552"/></g></g><g transform="translate(2 44)"><use fill="#F95353" xlink:href="#e"/><use fill="#000" filter="url(#f)" xlink:href="#e"/><use stroke="#491C58" stroke-width="3" xlink:href="#e"/></g><g transform="translate(2 44)"><use fill="#F9F4F4" xlink:href="#g"/><use fill="#000" filter="url(#h)" xlink:href="#g"/><use stroke="#491C58" stroke-width="3" xlink:href="#g"/></g><g transform="translate(2 44)"><use fill="#F95353" xlink:href="#i"/><rect stroke="#491C58" stroke-width="3" x="14.5" y="1.5" width="62" height="7.867" rx="3.933"/></g><path d="M30.5 75.5l-2 20" stroke="#F39090" stroke-width="3" stroke-linecap="square"/><path d="M2 109.5h85M92.25 109.5h2.25M99.5 109.5h12" stroke="#491C58" stroke-width="3" stroke-linecap="round"/></g></svg>