<svg width="128px" height="114px" viewBox="68 96 128 114" version="1.1" xmlns="http://www.w3.org/2000/svg" xmlns:xlink="http://www.w3.org/1999/xlink"><!--Generator: Sketch 42 (36781) - http://www.bohemiancoding.com/sketch--><desc>Created with Sketch.</desc><defs><path d="M92.2961515,42.9984506 C92.3095798,42.8934642 92.3212451,42.7851942 92.3310871,42.6735067 C92.3831505,42.082692 92.4097158,29.4621875 92.4097158,28.8583564 C92.4097158,17.3386042 82.7409697,8 70.813967,8 C58.8869643,8 49.2182182,17.3386042 49.2182182,28.8583564 C49.2182182,29.324942 49.2340798,41.8106157 49.2653106,42.2695694 C50.0051512,53.1419395 59.3700448,61.739379 70.813967,61.739379 C73.5894729,61.739379 77.8586217,59.4174377 80.9388694,56.8700504 C82.2852302,60.3944322 84.0545311,62.8386577 86.2805841,61.7304912 C91.1356861,57.2535938 92.1337179,48.086163 92.2961515,42.9984506 Z" id="path-1"/><filter x="-50%" y="-50%" width="200%" height="200%" filterUnits="objectBoundingBox" id="filter-2"><feMorphology radius="3" operator="erode" in="SourceAlpha" result="shadowSpreadInner1"/><feOffset dx="-2" dy="1" in="shadowSpreadInner1" result="shadowOffsetInner1"/><feComposite in="shadowOffsetInner1" in2="SourceAlpha" operator="arithmetic" k2="-1" k3="1" result="shadowInnerInner1"/><feColorMatrix values="0 0 0 0 0   0 0 0 0 0   0 0 0 0 0  0 0 0 0.145663496 0" type="matrix" in="shadowInnerInner1"/></filter><rect id="path-3" x="-5.32907052e-15" y="1.77635684e-15" width="38.1692304" height="45" rx="8"/><mask id="mask-4" maskContentUnits="userSpaceOnUse" maskUnits="objectBoundingBox" x="0" y="0" width="38.1692304" height="45" fill="white"><use xlink:href="#path-3"/></mask><polygon id="path-5" points="6.06241275 2.03553391 6.06241275 7.03553391 1.04014559 7.03553391 1.17391173 2.16870698"/><mask id="mask-6" maskContentUnits="userSpaceOnUse" maskUnits="objectBoundingBox" x="-2" y="-2" width="9.02226716" height="9"><rect x="-0.959854414" y="0.0355339059" width="9.02226716" height="9" fill="white"/><use xlink:href="#path-5" fill="black"/></mask><path d="M18.8239749,56.3930949 C18.6548167,58.0398331 19.8203026,59.7179499 21.4319968,60.1149089 C21.4319968,60.1149089 32.7629712,63.3593585 45.6075177,63.3593585 C58.4520642,63.3593585 70.6545191,59.879428 70.6545191,59.879428 C71.7214835,59.6007175 72.501694,58.4790498 72.3981519,57.3845115 L67.8210286,9 L23.692345,9 L18.8239749,56.3930949 Z" id="path-7"/><filter x="-50%" y="-50%" width="200%" height="200%" filterUnits="objectBoundingBox" id="filter-8"><feOffset dx="-8" dy="1" in="SourceAlpha" result="shadowOffsetInner1"/><feComposite in="shadowOffsetInner1" in2="SourceAlpha" operator="arithmetic" k2="-1" k3="1" result="shadowInnerInner1"/><feColorMatrix values="0 0 0 0 0   0 0 0 0 0   0 0 0 0 0  0 0 0 0.124009284 0" type="matrix" in="shadowInnerInner1"/></filter><path d="M23,22.7289108 C23,22.7289108 35.8376336,24.6461825 46,24.6461825 C56.1623664,24.6461825 69,22.7289108 69,22.7289108 L67.6094327,9 L24.3207032,9 L23,22.7289108 Z" id="path-9"/><filter x="-50%" y="-50%" width="200%" height="200%" filterUnits="objectBoundingBox" id="filter-10"><feOffset dx="-8" dy="1" in="SourceAlpha" result="shadowOffsetInner1"/><feComposite in="shadowOffsetInner1" in2="SourceAlpha" operator="arithmetic" k2="-1" k3="1" result="shadowInnerInner1"/><feColorMatrix values="0 0 0 0 0   0 0 0 0 0   0 0 0 0 0  0 0 0 0.0798799819 0" type="matrix" in="shadowInnerInner1"/></filter><rect id="path-11" x="13" y="0" width="65" height="10.8666667" rx="5.43333333"/><mask id="mask-12" maskContentUnits="userSpaceOnUse" maskUnits="objectBoundingBox" x="0" y="0" width="65" height="10.8666667" fill="white"><use xlink:href="#path-11"/></mask></defs><g id="Kana-Copy" stroke="none" stroke-width="1" fill="none" fill-rule="evenodd" transform="translate(101.000000, 99.000000)"><path d="M48.9407813,25.2776925 C46.4316601,26.035971 36.9110833,23.7192512 38.3084854,26.1289497 C44.117274,34.7110141 52.3108989,37.9569648 53.2360319,34.8382915" id="Path-5-Copy" stroke="#603F39" stroke-width="4" fill="#FFEA04"/><g id="Combined-Shape"><use fill="#FFEA04" fill-rule="evenodd" xlink:href="#path-1"/><use fill="black" fill-opacity="1" filter="url(#filter-2)" xlink:href="#path-1"/><use stroke="#603F39" stroke-width="4" xlink:href="#path-1"/></g><path d="M72.3206471,7 L75.3340074,0" id="Line" stroke="#603F39" stroke-width="4" stroke-linecap="round"/><path d="M57.2538457,25.6577678 C57.2538457,25.6577678 59.2627525,23.8000031 61.2716594,23.8000031 C63.2805662,23.8000031 65.2894731,25.6577678 65.2894731,25.6577678" id="Line" stroke="#603F39" stroke-width="2" stroke-linecap="round"/><path d="M76.3384609,24.9977641 C76.3384609,24.9977641 78.3473677,23.1399994 80.3562746,23.1399994 C82.3651815,23.1399994 84.3740883,24.9977641 84.3740883,24.9977641" id="Line" stroke="#603F39" stroke-width="2" stroke-linecap="round"/><path d="M67.29838,6 L65.2894731,2" id="Line" stroke="#603F39" stroke-width="4" stroke-linecap="round"/><ellipse id="Oval" stroke="#603F39" stroke-width="2" fill="#603F39" cx="60.7694327" cy="31.5" rx="2.51113358" ry="2.5"/><path d="M79.7509323,51.9140526 C79.7509323,51.9140526 80.0567486,55.6051056 81.3192289,57.9167047" id="Path-4" stroke="#603F39" stroke-width="4"/><g id="Tablet" transform="translate(23.392544, 30.529621) rotate(10.000000) translate(-23.392544, -30.529621) translate(3.892544, 8.029621)"><use id="Rectangle-2" stroke="#491C58" mask="url(#mask-4)" stroke-width="6" fill="#FAFAFA" xlink:href="#path-3"/><polyline id="Path-7" stroke="#979797" stroke-width="2" transform="translate(11.048988, 29.846554) scale(-1, 1) translate(-11.048988, -29.846554) " points="7.03117403 30.336062 7.94674019 29.2758523 11.065214 30.6931086 13.4712446 29 15.0668015 30.1252692"/><path d="M7.08966696,13.0602097 C7.08966696,13.0602097 6.5777753,9.81013197 8.00012944,8.06528056 C9.42248357,6.32042915 12.319162,6.94969248 12.319162,6.94969248" id="Path-6-Copy" stroke="#FFFFFF" stroke-width="4" stroke-linecap="round"/><polyline id="Path-7" stroke="#979797" stroke-width="2" transform="translate(12.325288, 12.530105) scale(-1, 1) translate(-12.325288, -12.530105) " points="6.02672059 13.0602097 6.94228676 12 11.3874124 12.5301048 14.403488 12.0831482 18.6238548 12.0960475"/><path d="M7.08966696,13.0602097 C7.08966696,13.0602097 6.5777753,9.81013197 8.00012944,8.06528056 C9.42248357,6.32042915 12.319162,6.94969248 12.319162,6.94969248" id="Path-6" stroke="#FFFFFF" stroke-width="4" stroke-linecap="round" opacity="0.80225317"/><polyline id="Path-7" stroke="#979797" stroke-width="2" transform="translate(26.387636, 30.530105) scale(-1, 1) translate(-26.387636, -30.530105) " points="20.0890686 31.0602097 21.0046348 30 25.4497604 30.5301048 28.465836 30.0831482 32.6862028 30.0960475"/><polyline id="Path-8" stroke="#979797" stroke-width="2" transform="translate(27.381188, 21.500000) scale(-1, 1) translate(-27.381188, -21.500000) " points="22.0979755 21 26.6226297 21.7528503 29.8732034 21.1715998 32.6644014 21.1192208"/><path d="M7.03117403,21.0011713 L14.8597994,20.9988287" id="Path-9" stroke="#979797" stroke-width="2" transform="translate(10.945487, 21.000000) scale(-1, 1) translate(-10.945487, -21.000000) "/><polyline id="Path-7" stroke="#979797" stroke-width="2" transform="translate(27.120243, 11.846554) scale(-1, 1) translate(-27.120243, -11.846554) " points="23.1024289 12.336062 24.0179951 11.2758523 27.136469 12.6931086 29.5424995 11 31.1380564 12.1252692"/></g><ellipse id="Oval" stroke="#603F39" stroke-width="2" fill="#603F39" cx="79.8540479" cy="32.5" rx="2.51113358" ry="2.5"/><g id="Group" transform="translate(65.289473, 37.000000)"><g id="Rectangle-3" transform="translate(3.551279, 4.535534) rotate(45.000000) translate(-3.551279, -4.535534) "><use fill="#FF7043" fill-rule="evenodd" xlink:href="#path-5"/><use stroke="#603F39" mask="url(#mask-6)" stroke-width="4" xlink:href="#path-5"/></g><polygon id="Rectangle-3" fill="#D05934" transform="translate(3.551279, 4.535534) rotate(45.000000) translate(-3.551279, -4.535534) " points="6.06241275 2.03553391 6.06241275 7.03553391 1.04014559 7.03553391"/></g></g><g id="Hat" stroke="none" stroke-width="1" fill="none" fill-rule="evenodd" transform="translate(70.164169, 141.000000)"><g id="Path"><use fill="#F95353" fill-rule="evenodd" xlink:href="#path-7"/><use fill="black" fill-opacity="1" filter="url(#filter-8)" xlink:href="#path-7"/><use stroke="#491C58" stroke-width="3" xlink:href="#path-7"/></g><g id="Path-2"><use fill="#F9F4F4" fill-rule="evenodd" xlink:href="#path-9"/><use fill="black" fill-opacity="1" filter="url(#filter-10)" xlink:href="#path-9"/><use stroke="#491C58" stroke-width="3" xlink:href="#path-9"/></g><use id="Rectangle" stroke="#491C58" mask="url(#mask-12)" stroke-width="6" fill="#F95353" xlink:href="#path-11"/><path d="M28.5,31.5 L26.5,51.5" id="Line" stroke="#F39090" stroke-width="3" stroke-linecap="square"/><path d="M0,65.5 L85,65.5" id="Line" stroke="#491C58" stroke-width="3" stroke-linecap="round"/><path d="M90.25,65.5 L92.5,65.5" id="Line" stroke="#491C58" stroke-width="3" stroke-linecap="round"/><path d="M97.5,65.5 L109.5,65.5" id="Line" stroke="#491C58" stroke-width="3" stroke-linecap="round"/></g></svg>