<svg width="74px" height="78px" viewBox="90 278 74 78" version="1.1" xmlns="http://www.w3.org/2000/svg" xmlns:xlink="http://www.w3.org/1999/xlink"><!--Generator: Sketch 42 (36781) - http://www.bohemiancoding.com/sketch--><desc>Created with Sketch.</desc><defs><path d="M70.8869393,54.9984506 C70.900308,54.8934642 70.9119215,54.7851942 70.9217199,54.6735067 C70.9735525,54.082692 71,41.4621875 71,40.8583564 C71,29.3386042 61.3741221,20 49.5,20 C37.6258779,20 28,29.3386042 28,40.8583564 C28,41.324942 28.0157913,53.8106157 28.0468836,54.2695694 C28.783444,65.1419395 38.1068166,73.739379 49.5,73.739379 C52.2632002,73.739379 56.5134209,71.4174377 59.5800117,68.8700504 C60.9204033,72.3944322 62.6818596,74.8386577 64.8980429,73.7304912 C69.731619,69.2535938 70.7252258,60.086163 70.8869393,54.9984506 Z" id="path-1"/><filter x="-50%" y="-50%" width="200%" height="200%" filterUnits="objectBoundingBox" id="filter-2"><feMorphology radius="3" operator="erode" in="SourceAlpha" result="shadowSpreadInner1"/><feOffset dx="-2" dy="1" in="shadowSpreadInner1" result="shadowOffsetInner1"/><feComposite in="shadowOffsetInner1" in2="SourceAlpha" operator="arithmetic" k2="-1" k3="1" result="shadowInnerInner1"/><feColorMatrix values="0 0 0 0 1   0 0 0 0 0   0 0 0 0 0  0 0 0 0.15 0" type="matrix" in="shadowInnerInner1"/></filter><polygon id="path-3" points="6.03553391 1.03553391 6.03553391 6.03553391 1.03553391 6.03553391 1.16870698 1.16870698"/><mask id="mask-4" maskContentUnits="userSpaceOnUse" maskUnits="objectBoundingBox" x="-2" y="-2" width="9" height="9"><rect x="-0.964466094" y="-0.964466094" width="9" height="9" fill="white"/><use xlink:href="#path-3" fill="black"/></mask><path d="M5.99972322,24.7579592 L3.57794807,25.8268371 C2.56938805,26.2719765 1.8262772,25.7308707 1.91629685,24.6408464 L2.14780991,21.8375157 L0.407761711,19.743172 C-0.299903411,18.8914174 -0.00734366986,17.9910033 1.07084977,17.729705 L3.61910987,17.1121387 L5.00392251,14.7141186 C5.55388805,13.761767 6.44294949,13.7572493 7.00404447,14.7288732 L7.19002989,15.0509361 L8.38033656,17.1121387 L10.9285967,17.729705 C12.0024752,17.9899576 12.3047256,18.8849471 11.5916847,19.743172 L9.85163653,21.8375157 L10.0831496,24.6408464 C10.174005,25.7409904 9.42861329,26.2713387 8.42149837,25.8268371 L5.99972322,24.7579592 Z" id="path-5"/><filter x="-50%" y="-50%" width="200%" height="200%" filterUnits="objectBoundingBox" id="filter-6"><feMorphology radius="1" operator="erode" in="SourceAlpha" result="shadowSpreadInner1"/><feOffset dx="-2" dy="-4" in="shadowSpreadInner1" result="shadowOffsetInner1"/><feComposite in="shadowOffsetInner1" in2="SourceAlpha" operator="arithmetic" k2="-1" k3="1" result="shadowInnerInner1"/><feColorMatrix values="0 0 0 0 0   0 0 0 0 0   0 0 0 0 0  0 0 0 0.0859941123 0" type="matrix" in="shadowInnerInner1"/></filter><path d="M18.9998467,8.16125942 L17.1832373,8.88000747 C16.1561588,9.28637478 15.4065124,8.71523356 15.5069522,7.62498516 L15.6662768,5.89555773 L14.4048279,4.53449809 C13.6573885,3.7280368 13.9337433,2.8825963 15.006919,2.64944839 L16.9395872,2.22957539 L17.9214453,0.70541242 C18.5170299,-0.219128509 19.4847473,-0.215893609 20.0299765,0.630479186 L20.0299765,0.630479186 L21.0601062,2.22957539 L22.9927743,2.64944839 C24.0727395,2.8840713 24.3417625,3.72862198 23.5948655,4.53449809 L22.3334166,5.89555773 L22.4927412,7.62498516 C22.594033,8.72448215 21.841937,9.28574267 20.8164561,8.88000747 L18.9998467,8.16125942 Z" id="path-7"/><filter x="-50%" y="-50%" width="200%" height="200%" filterUnits="objectBoundingBox" id="filter-8"><feMorphology radius="1" operator="erode" in="SourceAlpha" result="shadowSpreadInner1"/><feOffset dx="-2" dy="-4" in="shadowSpreadInner1" result="shadowOffsetInner1"/><feComposite in="shadowOffsetInner1" in2="SourceAlpha" operator="arithmetic" k2="-1" k3="1" result="shadowInnerInner1"/><feColorMatrix values="0 0 0 0 0   0 0 0 0 0   0 0 0 0 0  0 0 0 0.0859941123 0" type="matrix" in="shadowInnerInner1"/></filter><rect id="path-9" x="18" y="20" width="6" height="36" rx="3"/><mask id="mask-10" maskContentUnits="userSpaceOnUse" maskUnits="objectBoundingBox" x="0" y="0" width="6" height="36" fill="white"><use xlink:href="#path-9"/></mask></defs><g id="Kana" stroke="none" stroke-width="1" fill="none" fill-rule="evenodd" transform="translate(91.000000, 279.000000)"><path d="M26.7237932,52.2776925 C24.2257966,53.035971 14.7474311,50.7192512 16.1386376,53.1289497 C21.9216718,61.7110141 30.0789687,64.9569648 31,61.8382915" id="Path-5" stroke="#603F39" stroke-width="4" fill="#DDCA03"/><g id="Combined-Shape"><use fill="#FFEA04" fill-rule="evenodd" xlink:href="#path-1"/><use fill="black" fill-opacity="1" filter="url(#filter-2)" xlink:href="#path-1"/><use stroke="#603F39" stroke-width="4" xlink:href="#path-1"/></g><path d="M51,19 L54,12" id="Line" stroke="#603F39" stroke-width="4" stroke-linecap="round"/><path d="M35,38.6577678 C35,38.6577678 37,36.8000031 39,36.8000031 C41,36.8000031 43,38.6577678 43,38.6577678" id="Line" stroke="#603F39" stroke-width="2" stroke-linecap="round"/><path d="M55,36.9977641 C55,36.9977641 57,35.1399994 59,35.1399994 C61,35.1399994 63,36.9977641 63,36.9977641" id="Line" stroke="#603F39" stroke-width="2" stroke-linecap="round"/><path d="M46,18 L44,14" id="Line" stroke="#603F39" stroke-width="4" stroke-linecap="round"/><circle id="Oval" stroke="#603F39" stroke-width="2" fill="#603F39" cx="38.5" cy="44.5" r="2.5"/><path d="M58.3973416,63.9140526 C58.3973416,63.9140526 58.701802,67.6051056 59.9586849,69.9167047" id="Path-4" stroke="#603F39" stroke-width="4"/><circle id="Oval" stroke="#603F39" stroke-width="2" fill="#603F39" cx="58.5" cy="44.5" r="2.5"/><g id="Group" transform="translate(44.000000, 50.000000)"><g id="Rectangle-3" transform="translate(3.535534, 3.535534) rotate(45.000000) translate(-3.535534, -3.535534) "><use fill="#FF7043" fill-rule="evenodd" xlink:href="#path-3"/><use stroke="#603F39" mask="url(#mask-4)" stroke-width="4" xlink:href="#path-3"/></g><polygon id="Rectangle-3" fill="#D05934" transform="translate(3.535534, 3.535534) rotate(45.000000) translate(-3.535534, -3.535534) " points="6.03553391 1.03553391 6.03553391 6.03553391 1.03553391 6.03553391"/></g><g id="Star"><use fill="#91C7E5" fill-rule="evenodd" xlink:href="#path-5"/><use fill="black" fill-opacity="1" filter="url(#filter-6)" xlink:href="#path-5"/><use stroke="#491C58" stroke-width="2" xlink:href="#path-5"/></g><g id="Star"><use fill="#FFEA04" fill-rule="evenodd" xlink:href="#path-7"/><use fill="black" fill-opacity="1" filter="url(#filter-8)" xlink:href="#path-7"/><use stroke="#491C58" stroke-width="2" xlink:href="#path-7"/></g><use id="Rectangle-4" stroke="#491C58" mask="url(#mask-10)" stroke-width="4" fill="#FFFFFF" xlink:href="#path-9"/><path d="M21,28 L21,48" id="Line" stroke="#491C58" stroke-width="4" stroke-linecap="square"/></g></svg>