<svg width="112" height="91" viewBox="0 0 112 91" xmlns="http://www.w3.org/2000/svg" xmlns:xlink="http://www.w3.org/1999/xlink"><defs><path d="M53.86 42.998c.013-.105.024-.213.034-.324.052-.59.078-13.212.078-13.816C53.972 17.338 44.352 8 32.482 8c-11.867 0-21.488 9.34-21.488 20.858 0 .467.016 12.953.047 13.412.737 10.872 10.056 19.47 21.443 19.47 2.762 0 7.01-2.323 10.075-4.87 1.34 3.524 3.1 5.97 5.315 4.86 4.832-4.476 5.825-13.644 5.986-18.732z" id="a"/><filter x="-10.5%" y="-8.3%" width="120.9%" height="116.8%" filterUnits="objectBoundingBox" id="b"><feMorphology radius="3" in="SourceAlpha" result="shadowSpreadInner1"/><feOffset dx="-2" dy="1" in="shadowSpreadInner1" result="shadowOffsetInner1"/><feComposite in="shadowOffsetInner1" in2="SourceAlpha" operator="arithmetic" k2="-1" k3="1" result="shadowInnerInner1"/><feColorMatrix values="0 0 0 0 1 0 0 0 0 0.00157828283 0 0 0 0 0.00157828283 0 0 0 0.145663496 0" in="shadowInnerInner1"/></filter><path id="c" d="M6.147 1.036v5H1.15l.133-4.867z"/><rect id="d" width="37.664" height="45" rx="8"/><rect id="e" width="6" height="36" rx="3"/></defs><g fill="none" fill-rule="evenodd"><g transform="translate(51 22)"><path d="M10.718 35.278c-2.496.758-11.97-1.56-10.58.85 5.78 8.583 13.934 11.83 14.854 8.71" stroke="#603F39" stroke-width="4" fill="#FFEA04"/><use fill="#FFEA04" xlink:href="#a"/><use fill="#000" filter="url(#b)" xlink:href="#a"/><use stroke="#603F39" stroke-width="4" xlink:href="#a"/><path d="M33.983 7l2.998-7" stroke="#603F39" stroke-width="4" stroke-linecap="round"/><path d="M18.99 23.658s2-1.858 3.998-1.858c2 0 3.998 1.858 3.998 1.858M37.98 27.998s2-1.858 3.998-1.858c2 0 3.998 1.858 3.998 1.858" stroke="#603F39" stroke-width="2" stroke-linecap="round"/><path d="M28.985 6l-2-4" stroke="#603F39" stroke-width="4" stroke-linecap="round"/><ellipse stroke="#603F39" stroke-width="2" fill="#603F39" cx="22.488" cy="30.5" rx="2.499" ry="2.5"/><path d="M41.376 51.914s.304 3.69 1.56 6.003" stroke="#603F39" stroke-width="4"/><ellipse stroke="#603F39" stroke-width="2" fill="#603F39" cx="41.479" cy="32.5" rx="2.499" ry="2.5"/><g><g transform="rotate(45 -28.786 54.972)"><use fill="#FF7043" xlink:href="#c"/><path stroke="#603F39" stroke-width="2" d="M7.147 1.036V.008L6.12.036 1.255.17.31.194l-.027.946L.15 6.01.122 7.036h7.025v-6z"/></g><path fill="#D05934" d="M34.054 41.535L30.52 45.07l-3.535-3.534"/></g></g><g transform="translate(20)"><use fill="#FAFAFA" xlink:href="#d"/><rect stroke="#491C58" stroke-width="3" x="1.5" y="1.5" width="34.664" height="42" rx="8"/></g><path stroke="#979797" stroke-width="2" d="M34.867 30.336l-.903-1.06-3.077 1.417L28.513 29l-1.575 1.125M38.377 13.06L37.474 12l-4.386.53-2.977-.447-4.163.013M52.254 31.06L51.35 30l-4.386.53-2.976-.447-4.165.013M52.232 21l-4.465.753-3.207-.58-2.754-.054M34.663 21h-7.725"/><path d="M51.94 12.22s.504-3.25-.9-4.994C49.638 5.48 46.78 6.11 46.78 6.11" stroke="#FFF" stroke-width="2" stroke-linecap="round"/><path stroke="#979797" stroke-width="2" d="M50.726 12.336l-.903-1.06-3.078 1.417L44.37 11l-1.573 1.125"/><path d="M51.94 12.22s.504-3.25-.9-4.994C49.638 5.48 46.78 6.11 46.78 6.11" stroke="#FFF" stroke-width="2" opacity=".802" stroke-linecap="round"/><g><g transform="rotate(-13 146.41 -178.917)"><use fill="#FFF" xlink:href="#e"/><rect stroke="#491C58" stroke-width="2" x="1" y="1" width="4" height="34" rx="2"/></g><path d="M48.723 35.47l4.5 19.487" stroke="#491C58" stroke-width="4" stroke-linecap="square"/></g><path d="M2 89h85M92 89h1.254M98 89h12" stroke="#491C58" stroke-width="3" stroke-linecap="round"/></g></svg>