<svg width="153" height="115" viewBox="0 0 153 115" xmlns="http://www.w3.org/2000/svg" xmlns:xlink="http://www.w3.org/1999/xlink"><defs><path d="M70.887 54.998c.013-.105.025-.213.035-.324.052-.59.078-13.212.078-13.816C71 29.338 61.374 20 49.5 20S28 29.34 28 40.858c0 .467.016 12.953.047 13.412.736 10.872 10.06 19.47 21.453 19.47 2.763 0 7.013-2.323 10.08-4.87 1.34 3.524 3.102 5.97 5.318 4.86 4.834-4.476 5.827-13.644 5.99-18.732z" id="a"/><filter x="-10.5%" y="-8.3%" width="120.9%" height="116.8%" filterUnits="objectBoundingBox" id="b"><feMorphology radius="3" in="SourceAlpha" result="shadowSpreadInner1"/><feOffset dx="-2" dy="1" in="shadowSpreadInner1" result="shadowOffsetInner1"/><feComposite in="shadowOffsetInner1" in2="SourceAlpha" operator="arithmetic" k2="-1" k3="1" result="shadowInnerInner1"/><feColorMatrix values="0 0 0 0 1 0 0 0 0 0 0 0 0 0 0 0 0 0 0.15 0" in="shadowInnerInner1"/></filter><path id="c" d="M6.036 1.036v5h-5L1.17 1.17z"/><path d="M6 24.758l-2.422 1.07c-1.01.444-1.752-.097-1.662-1.187l.232-2.802-1.74-2.095c-.708-.852-.415-1.752.663-2.013l2.55-.618 1.384-2.398c.55-.952 1.44-.957 2 .015l.186.32 1.19 2.062 2.55.618c1.072.26 1.375 1.155.662 2.013l-1.74 2.095.23 2.803c.092 1.1-.653 1.63-1.66 1.187L6 24.757z" id="d"/><filter x="-29.2%" y="-29.3%" width="158.3%" height="158.4%" filterUnits="objectBoundingBox" id="e"><feMorphology radius="1" in="SourceAlpha" result="shadowSpreadInner1"/><feOffset dx="-2" dy="-4" in="shadowSpreadInner1" result="shadowOffsetInner1"/><feComposite in="shadowOffsetInner1" in2="SourceAlpha" operator="arithmetic" k2="-1" k3="1" result="shadowInnerInner1"/><feColorMatrix values="0 0 0 0 0 0 0 0 0 0 0 0 0 0 0 0 0 0 0.0859941123 0" in="shadowInnerInner1"/></filter><path d="M19 8.16l-1.817.72c-1.027.406-1.776-.165-1.676-1.255l.16-1.73-1.262-1.36c-.748-.807-.47-1.652.602-1.886l1.933-.42.98-1.525c.597-.924 1.565-.92 2.11-.075l1.03 1.6 1.933.42c1.08.234 1.35 1.08.602 1.884l-1.262 1.362.16 1.73c.1 1.098-.65 1.66-1.677 1.254L19 8.16z" id="f"/><filter x="-35.2%" y="-38.9%" width="170.3%" height="177.9%" filterUnits="objectBoundingBox" id="g"><feMorphology radius="1" in="SourceAlpha" result="shadowSpreadInner1"/><feOffset dx="-2" dy="-4" in="shadowSpreadInner1" result="shadowOffsetInner1"/><feComposite in="shadowOffsetInner1" in2="SourceAlpha" operator="arithmetic" k2="-1" k3="1" result="shadowInnerInner1"/><feColorMatrix values="0 0 0 0 0 0 0 0 0 0 0 0 0 0 0 0 0 0 0.0859941123 0" in="shadowInnerInner1"/></filter><rect id="h" x="18" y="20" width="6" height="36" rx="3"/><path d="M26.716 24.936l-4.93 2.085c-.505.214-.875-.067-.83-.6l.46-5.335-3.507-4.045c-.36-.413-.205-.852.316-.973l5.215-1.21 2.764-4.587c.283-.47.74-.47 1.03.01l1.12 1.858 1.637 2.718 5.216 1.21c.534.125.667.57.317.974l-3.508 4.045.46 5.335c.047.545-.335.81-.828.6l-4.93-2.084z" id="i"/><filter x="-12.5%" y="-13.1%" width="125%" height="126.2%" filterUnits="objectBoundingBox" id="j"><feMorphology radius=".5" in="SourceAlpha" result="shadowSpreadInner1"/><feOffset dx="-1" dy="-2" in="shadowSpreadInner1" result="shadowOffsetInner1"/><feComposite in="shadowOffsetInner1" in2="SourceAlpha" operator="arithmetic" k2="-1" k3="1" result="shadowInnerInner1"/><feColorMatrix values="0 0 0 0 0 0 0 0 0 0 0 0 0 0 0 0 0 0 0.0942312047 0" in="shadowInnerInner1"/></filter><path d="M66.307 32.426l-3.945 1.668c-.505.214-.875-.06-.83-.602l.37-4.267-2.807-3.236c-.36-.415-.212-.853.317-.975l4.172-.97 2.21-3.668c.283-.47.744-.466 1.027.004l.848 1.407 1.362 2.26 4.172.968c.534.124.672.564.316.974l-2.806 3.235.368 4.267c.047.546-.33.814-.828.602l-3.945-1.668z" id="k"/><filter x="-15.2%" y="-15.9%" width="130.4%" height="131.8%" filterUnits="objectBoundingBox" id="l"><feMorphology radius=".5" in="SourceAlpha" result="shadowSpreadInner1"/><feOffset dx="-1" dy="-2" in="shadowSpreadInner1" result="shadowOffsetInner1"/><feComposite in="shadowOffsetInner1" in2="SourceAlpha" operator="arithmetic" k2="-1" k3="1" result="shadowInnerInner1"/><feColorMatrix values="0 0 0 0 0 0 0 0 0 0 0 0 0 0 0 0 0 0 0.0958163496 0" in="shadowInnerInner1"/></filter><path d="M54.36 11.645l-3.245 1.373c-.51.216-.887-.057-.84-.61l.303-3.51-2.308-2.663c-.364-.42-.22-.862.32-.987l3.433-.797 1.82-3.018c.285-.475.75-.478 1.034-.004l.653 1.083 1.168 1.94 3.433.798c.542.125.685.568.322.987l-2.31 2.662.304 3.51c.048.554-.33.827-.84.61l-3.245-1.372z" id="m"/><filter x="-17.9%" y="-18.7%" width="135.8%" height="137.4%" filterUnits="objectBoundingBox" id="n"><feMorphology radius=".5" in="SourceAlpha" result="shadowSpreadInner1"/><feOffset dx="-1" dy="-2" in="shadowSpreadInner1" result="shadowOffsetInner1"/><feComposite in="shadowOffsetInner1" in2="SourceAlpha" operator="arithmetic" k2="-1" k3="1" result="shadowInnerInner1"/><feColorMatrix values="0 0 0 0 0 0 0 0 0 0 0 0 0 0 0 0 0 0 0.0859941123 0" in="shadowInnerInner1"/></filter><path d="M18.824 56.393c-.17 1.647.996 3.325 2.608 3.722 0 0 11.33 3.244 24.176 3.244 12.844 0 25.047-3.48 25.047-3.48 1.066-.28 1.847-1.4 1.743-2.495L67.82 9H23.693l-4.868 47.393z" id="o"/><filter x="-10.3%" y="-10.1%" width="120.5%" height="120.2%" filterUnits="objectBoundingBox" id="p"><feOffset dx="-8" dy="1" in="SourceAlpha" result="shadowOffsetInner1"/><feComposite in="shadowOffsetInner1" in2="SourceAlpha" operator="arithmetic" k2="-1" k3="1" result="shadowInnerInner1"/><feColorMatrix values="0 0 0 0 0 0 0 0 0 0 0 0 0 0 0 0 0 0 0.124009284 0" in="shadowInnerInner1"/></filter><path d="M23 22.73s12.838 1.916 23 1.916 23-1.917 23-1.917L67.61 9H24.32L23 22.73z" id="q"/><filter x="-12.2%" y="-35.2%" width="124.5%" height="170.3%" filterUnits="objectBoundingBox" id="r"><feOffset dx="-8" dy="1" in="SourceAlpha" result="shadowOffsetInner1"/><feComposite in="shadowOffsetInner1" in2="SourceAlpha" operator="arithmetic" k2="-1" k3="1" result="shadowInnerInner1"/><feColorMatrix values="0 0 0 0 0 0 0 0 0 0 0 0 0 0 0 0 0 0 0.0798799819 0" in="shadowInnerInner1"/></filter><rect id="s" x="13" width="65" height="10.867" rx="5.433"/></defs><g fill="none" fill-rule="evenodd"><g transform="translate(80 37)"><path d="M26.724 52.278c-2.498.758-11.977-1.56-10.585.85C21.92 61.712 30.08 64.96 31 61.84" stroke="#603F39" stroke-width="4" fill="#DDCA03"/><use fill="#FFEA04" xlink:href="#a"/><use fill="#000" filter="url(#b)" xlink:href="#a"/><use stroke="#603F39" stroke-width="4" xlink:href="#a"/><path d="M51 19l3-7" stroke="#603F39" stroke-width="4" stroke-linecap="round"/><path d="M35 38.658s2-1.858 4-1.858 4 1.858 4 1.858M55 36.998s2-1.858 4-1.858 4 1.858 4 1.858" stroke="#603F39" stroke-width="2" stroke-linecap="round"/><path d="M46 18l-2-4" stroke="#603F39" stroke-width="4" stroke-linecap="round"/><circle stroke="#603F39" stroke-width="2" fill="#603F39" cx="38.5" cy="44.5" r="2.5"/><path d="M58.397 63.914s.305 3.69 1.562 6.003" stroke="#603F39" stroke-width="4"/><circle stroke="#603F39" stroke-width="2" fill="#603F39" cx="58.5" cy="44.5" r="2.5"/><g transform="rotate(45 -34.82 81.648)"><use fill="#FF7043" xlink:href="#c"/><path stroke="#603F39" stroke-width="2" d="M7.036 1.036V.008L6.008.036 1.14.17.196.194.17 1.14.035 6.01.008 7.036H7.036v-6z"/></g><path fill="#D05934" d="M51.07 53.536l-3.535 3.535L44 53.537"/><use fill="#91C7E5" xlink:href="#d"/><use fill="#000" filter="url(#e)" xlink:href="#d"/><use stroke="#491C58" stroke-width="2" xlink:href="#d"/><g><use fill="#FFEA04" xlink:href="#f"/><use fill="#000" filter="url(#g)" xlink:href="#f"/><use stroke="#491C58" stroke-width="2" xlink:href="#f"/></g><g><use fill="#FFF" xlink:href="#h"/><rect stroke="#491C58" stroke-width="2" x="19" y="21" width="4" height="34" rx="2"/></g><path d="M21 28v20" stroke="#491C58" stroke-width="4" stroke-linecap="square"/></g><g transform="rotate(-24 26.716 18.506)"><use fill="#F95353" xlink:href="#i"/><use fill="#000" filter="url(#j)" xlink:href="#i"/><use stroke="#491C58" stroke-width="2" xlink:href="#i"/></g><g transform="rotate(19 66.307 27.097)"><use fill="#F6F6F6" xlink:href="#k"/><use fill="#000" filter="url(#l)" xlink:href="#k"/><use stroke="#491C58" stroke-width="2" xlink:href="#k"/></g><use fill="#91C7E5" xlink:href="#m"/><use fill="#000" filter="url(#n)" xlink:href="#m"/><use stroke="#491C58" stroke-width="2" xlink:href="#m"/><path d="M2 113.5h85M92.25 113.5h2.25M99.5 113.5h12" stroke="#491C58" stroke-width="3" stroke-linecap="round"/><g><g transform="translate(2 48)"><use fill="#F95353" xlink:href="#o"/><use fill="#000" filter="url(#p)" xlink:href="#o"/><use stroke="#491C58" stroke-width="3" xlink:href="#o"/></g><g transform="translate(2 48)"><use fill="#F9F4F4" xlink:href="#q"/><use fill="#000" filter="url(#r)" xlink:href="#q"/><use stroke="#491C58" stroke-width="3" xlink:href="#q"/></g><g transform="translate(2 48)"><use fill="#F95353" xlink:href="#s"/><rect stroke="#491C58" stroke-width="3" x="14.5" y="1.5" width="62" height="7.867" rx="3.933"/></g><path d="M30.5 79.5l-2 20" stroke="#F39090" stroke-width="3" stroke-linecap="square"/><path d="M2 113.5h85M92.25 113.5h2.25M99.5 113.5h12" stroke="#491C58" stroke-width="3" stroke-linecap="round"/></g><path d="M32.865 35.108s.182-.452.537-.76c.23-.2.59-.282.83-.348" stroke="#FFF" stroke-linecap="round"/></g></svg>